<?xml version="1.0" encoding="UTF-8" standalone="no"?> <svg width="512" height="512" viewBox="0 0 512 512" fill="none" xmlns="http://www.w3.org/2000/svg">
<path d="M293.571 42.6206L24.1807 80.3178L83.7338 475.86C84.3656 480.056 86.6384 483.829 90.0523 486.35C93.4662 488.87 97.7415 489.931 101.938 489.299L355.084 451.185L293.571 42.6206Z" fill="#6562F1"/>
<path d="M295.531 55.6433L42.3841 93.7574C38.1879 94.3892 33.9126 93.3281 30.4988 90.8077C27.0849 88.2873 24.8121 84.514 24.1803 80.3178V80.3178C23.8675 78.2401 23.9669 76.1211 24.473 74.0818C24.9791 72.0425 25.8819 70.1229 27.1299 68.4325C28.3779 66.7421 29.9466 65.3141 31.7464 64.23C33.5463 63.1458 35.5421 62.4268 37.6198 62.114L290.767 24L295.531 55.6433Z" fill="#5350EF"/>
<path d="M246.111 103.536L103.716 124.972L106.098 140.794L248.493 119.359L246.111 103.536Z" fill="#8380F3"/>
<path d="M188.441 345.841C237.042 345.841 276.441 306.442 276.441 257.841C276.441 209.24 237.042 169.841 188.441 169.841C139.84 169.841 100.441 209.24 100.441 257.841C100.441 306.442 139.84 345.841 188.441 345.841Z" fill="#07B7E0"/>
<path d="M270.785 374.887L136.3 395.132L138.682 410.955L273.166 390.71L270.785 374.887Z" fill="#8380F3"/>
<path d="M299.282 402.957L125.243 429.157L127.625 444.979L301.664 418.78L299.282 402.957Z" fill="#8380F3"/>
<path d="M275.756 268.965L233.83 275.277C234.347 259.155 231.94 243.071 226.727 227.806L268.61 221.5C266.241 216.268 263.362 211.281 260.015 206.614L220.443 212.572C212.458 196.181 201.151 181.631 187.241 169.845C179.262 169.959 171.335 171.153 163.677 173.393C153.853 188.752 147.332 205.986 144.527 224.001L104.956 229.959C103.131 235.406 101.848 241.019 101.125 246.717L143.007 240.411C142.518 256.535 144.953 272.614 150.193 287.87L108.271 294.182C110.64 299.415 113.519 304.401 116.866 309.069L156.506 303.1C164.536 319.51 175.9 334.064 189.872 345.835C197.694 345.7 205.465 344.53 212.98 342.356C222.864 326.992 229.437 309.737 232.28 291.692L271.926 285.722C273.75 280.276 275.033 274.663 275.756 268.965V268.965ZM177.049 182.18C187.9 191.41 196.95 202.565 203.744 215.086L161.226 221.487C164.033 207.522 169.397 194.195 177.049 182.18H177.049ZM199.797 333.269C189.01 324.095 180.001 313.016 173.219 300.584L215.571 294.208C212.75 308.084 207.404 321.325 199.797 333.269H199.797ZM217.706 277.705L166.32 285.442C160.679 270.287 158.23 254.13 159.124 237.984L210.61 230.233C216.218 245.4 218.634 261.561 217.706 277.705H217.706Z" fill="#06A4C9"/>
<path d="M216 72V472C216 476.243 217.686 480.313 220.686 483.314C223.687 486.314 227.757 488 232 488H488V72H216Z" fill="#08CCF9"/>
<path d="M488 88H232C227.757 88 223.687 86.3143 220.686 83.3137C217.686 80.3131 216 76.2435 216 72C216 67.7565 217.686 63.6869 220.686 60.6863C223.687 57.6857 227.757 56 232 56H488V88Z" fill="#07B7E0"/>
<path d="M440 312H264V440H440V312Z" fill="#F97673"/>
<path d="M391.596 324.962C389.244 325.902 387.15 327.388 385.484 329.296C383.819 331.204 382.63 333.48 382.016 335.937L376 360L354.463 352.821C352.832 352.277 351.123 352 349.404 352H296L308.353 389.06C309.415 392.245 311.453 395.016 314.177 396.98C316.901 398.943 320.174 400 323.532 400H349.404C351.123 400 352.832 399.723 354.463 399.179L376 392L382.016 416.063C382.63 418.52 383.819 420.796 385.484 422.704C387.15 424.612 389.244 426.098 391.596 427.038L424 440H440V312H424L391.596 324.962Z" fill="#FFDCDC"/>
<path d="M272 224H256V272H272V224Z" fill="#07B7E0"/>
<path d="M312 240H296V272H312V240Z" fill="#07B7E0"/>
<path d="M312 128H296V224H312V128Z" fill="#07B7E0"/>
<path d="M352 240H336V272H352V240Z" fill="#07B7E0"/>
<path d="M352 128H336V224H352V128Z" fill="#07B7E0"/>
<path d="M392 240H376V272H392V240Z" fill="#07B7E0"/>
<path d="M392 128H376V224H392V128Z" fill="#07B7E0"/>
<path d="M432 240H416V272H432V240Z" fill="#07B7E0"/>
<path d="M432 128H416V224H432V128Z" fill="#07B7E0"/>
<path d="M488 48.0001H302.201L298.383 22.6358C298.066 20.538 296.93 18.6516 295.223 17.3915C293.516 16.1314 291.379 15.6007 289.281 15.9161L36.134 54.0304C29.8429 54.985 24.1874 58.3961 20.4082 63.5153C16.6289 68.6345 15.0345 75.0438 15.9748 81.337L75.528 476.879C75.9954 479.996 77.0727 482.991 78.6982 485.692C80.3238 488.393 82.4659 490.746 85.0018 492.619C87.5378 494.491 90.418 495.845 93.4776 496.603C96.5373 497.362 99.7164 497.509 102.833 497.038L209.735 480.943C211.523 485.385 214.598 489.192 218.566 491.875C222.533 494.558 227.211 495.994 232 496H488C490.121 496 492.156 495.157 493.657 493.657C495.157 492.157 496 490.122 496 488V56.0001C496 53.8784 495.157 51.8435 493.657 50.3433C492.156 48.843 490.121 48.0001 488 48.0001V48.0001ZM208 317.15C205.583 322.677 202.741 328.008 199.5 333.096C188.713 323.921 179.705 312.842 172.924 300.411L208 295.13V317.15ZM142.715 240.238C142.228 256.362 144.664 272.44 149.905 287.696L116.253 292.762C109.071 278.045 106.577 261.478 109.106 245.298L142.715 240.238ZM113.725 228.422C117.648 218.472 123.518 209.406 130.993 201.756C138.467 194.106 147.395 188.027 157.251 183.875C150.796 196.408 146.401 209.899 144.234 223.829L113.725 228.422ZM156.22 302.926C162.433 315.619 170.652 327.228 180.561 337.304C169.88 336.264 159.517 333.093 150.083 327.98C140.649 322.866 132.336 315.912 125.636 307.531L156.22 302.926ZM208 278.949L166.018 285.27C160.379 270.115 157.93 253.959 158.824 237.813L208 230.409V278.949ZM160.929 221.315C163.736 207.347 169.103 194.019 176.758 182.003C187.61 191.24 196.67 202.394 203.488 214.908L160.929 221.315ZM208 192.251C204.305 187.227 200.26 182.47 195.895 178.016C199.979 178.411 204.027 179.126 208 180.152V192.251ZM208 109.056L103.421 124.801L105.802 140.623L208 125.236V163.714C196.77 161.331 185.201 161 173.854 162.737C161.381 164.608 149.4 168.917 138.593 175.419C127.787 181.922 118.367 190.49 110.874 200.634C103.38 210.778 97.9581 222.299 94.9184 234.539C91.8788 246.78 91.2808 259.499 93.1585 271.97C95.0363 284.441 99.353 296.42 105.862 307.223C112.371 318.025 120.945 327.439 131.093 334.927C141.242 342.415 152.767 347.829 165.009 350.862C177.25 353.894 189.97 354.484 202.44 352.599C204.303 352.318 206.155 351.962 208 351.574V384.121L136.006 394.961L138.388 410.783L208 400.302V416.482L124.948 428.986L127.33 444.809L208 432.663V465.023L100.451 481.216C98.3536 481.53 96.2169 480.999 94.5104 479.739C92.8039 478.479 91.667 476.593 91.3493 474.496L35.1638 101.321C36.6559 101.614 38.1726 101.763 39.6931 101.766C40.8939 101.765 42.093 101.675 43.2805 101.496L208 76.6954V109.056ZM211.211 60.0311L40.8987 85.6739C38.8018 85.9857 36.6667 85.4542 34.9609 84.1955C33.255 82.9369 32.1173 81.0537 31.7967 78.9581L31.7962 78.9542H31.796C31.4827 76.8565 32.0143 74.7202 33.2741 73.014C34.5338 71.3077 36.4189 70.1708 38.5159 69.8526L283.752 32.9288L286.021 48.0001H232C227.783 48.0034 223.642 49.117 219.993 51.229C216.343 53.341 213.314 56.3768 211.211 60.0311V60.0311ZM480 480H232C229.879 479.998 227.845 479.154 226.346 477.654C224.846 476.155 224.002 474.121 224 472V94.6239C226.568 95.5358 229.274 96.0012 232 96.0001H480V480ZM480 80.0001H232C229.878 80.0001 227.843 79.1572 226.343 77.6569C224.843 76.1567 224 74.1218 224 72.0001C224 69.8784 224.843 67.8435 226.343 66.3432C227.843 64.8429 229.878 64.0001 232 64.0001H480V80.0001Z" fill="#303077"/>
<path d="M264 448H440C442.122 448 444.157 447.157 445.657 445.657C447.157 444.157 448 442.122 448 440V312C448 309.878 447.157 307.843 445.657 306.343C444.157 304.843 442.122 304 440 304H264C261.878 304 259.843 304.843 258.343 306.343C256.843 307.843 256 309.878 256 312V440C256 442.122 256.843 444.157 258.343 445.657C259.843 447.157 261.878 448 264 448V448ZM394.567 332.39L425.541 320H432V432H425.541L394.567 419.61C393.392 419.139 392.346 418.396 391.513 417.442C390.681 416.488 390.086 415.351 389.777 414.123L383.761 390.06C383.494 388.99 383.008 387.988 382.335 387.115C381.662 386.242 380.816 385.518 379.85 384.987C378.883 384.457 377.818 384.132 376.72 384.032C375.622 383.933 374.516 384.062 373.47 384.41L351.934 391.589C351.118 391.861 350.263 392 349.403 392H323.532C321.853 392.002 320.216 391.474 318.853 390.492C317.491 389.51 316.472 388.124 315.942 386.53L307.099 360H349.403C350.263 360 351.118 360.139 351.934 360.411L373.47 367.59C374.516 367.938 375.622 368.067 376.72 367.968C377.818 367.868 378.883 367.543 379.85 367.013C380.816 366.482 381.662 365.758 382.335 364.885C383.008 364.012 383.494 363.01 383.761 361.94L389.777 337.877C390.086 336.649 390.68 335.512 391.513 334.558C392.346 333.604 393.392 332.861 394.567 332.39ZM272 320H384.023C379.166 323.315 375.691 328.294 374.254 333.996L370.334 349.679L356.993 345.231C354.546 344.415 351.983 343.999 349.403 344H296C294.732 344 293.483 344.301 292.354 344.879C291.226 345.457 290.251 346.294 289.51 347.323C288.769 348.351 288.283 349.541 288.092 350.794C287.9 352.047 288.01 353.328 288.411 354.53L300.764 391.59C302.353 396.371 305.408 400.53 309.495 403.476C313.582 406.421 318.494 408.005 323.532 408H349.403C351.983 408.001 354.546 407.585 356.993 406.769L370.334 402.321L374.254 418.004C375.691 423.706 379.166 428.685 384.023 432H272V320Z" fill="#303077"/>
<path d="M272 224H256V272H272V224Z" fill="#303077"/>
<path d="M312 240H296V272H312V240Z" fill="#303077"/>
<path d="M312 128H296V224H312V128Z" fill="#303077"/>
<path d="M352 240H336V272H352V240Z" fill="#303077"/>
<path d="M352 128H336V224H352V128Z" fill="#303077"/>
<path d="M392 240H376V272H392V240Z" fill="#303077"/>
<path d="M392 128H376V224H392V128Z" fill="#303077"/>
<path d="M432 240H416V272H432V240Z" fill="#303077"/>
<path d="M432 128H416V224H432V128Z" fill="#303077"/>
</svg>
